<?xml version="1.0" encoding="UTF-8" standalone="no"?>
<svg
   width="128"
   height="128"
   version="1.1"
   id="svg6"
   sodipodi:docname="icon.svg"
   inkscape:version="1.3.2 (091e20e, 2023-11-25, custom)"
   xmlns:inkscape="http://www.inkscape.org/namespaces/inkscape"
   xmlns:sodipodi="http://sodipodi.sourceforge.net/DTD/sodipodi-0.dtd"
   xmlns="http://www.w3.org/2000/svg"
   xmlns:svg="http://www.w3.org/2000/svg">
  <defs
     id="defs6" />
  <sodipodi:namedview
     id="namedview6"
     pagecolor="#505050"
     bordercolor="#ffffff"
     borderopacity="1"
     inkscape:showpageshadow="0"
     inkscape:pageopacity="0"
     inkscape:pagecheckerboard="1"
     inkscape:deskcolor="#505050"
     showguides="true"
     inkscape:zoom="3.2617188"
     inkscape:cx="88.450299"
     inkscape:cy="57.178443"
     inkscape:current-layer="svg6" />
  <rect
     width="124"
     height="124"
     x="2"
     y="2"
     fill="#363d52"
     stroke="#212532"
     stroke-width="4"
     rx="14"
     id="rect1" />
  <path
     fill="#8da5f3"
     d="M 65.031138,21.209752 51.398251,31.921307 65.031138,42.632861 78.664025,31.921307 Z M 85.472679,37.273188 71.839791,47.984743 85.472679,58.696297 99.105563,47.984743 Z M 105.92979,53.344417 92.296913,64.05597 105.92979,74.767524 119.56268,64.05597 Z M 44.589597,37.273188 30.95671,47.984743 44.589597,58.696297 58.222484,47.984743 Z M 65.031138,53.336626 51.398251,64.04818 65.031138,74.759735 78.664025,64.04818 Z M 85.488258,69.407852 71.855372,80.119406 85.488258,90.830961 99.121153,80.119406 Z M 24.132475,53.344417 10.499588,64.05597 24.132475,74.767524 37.765362,64.05597 Z M 44.574016,69.407852 30.941129,80.119406 44.574016,90.830961 58.206904,80.119406 Z M 65.031138,85.479078 51.398251,96.190633 65.031138,106.90219 78.664025,96.190633 Z"
     id="path1-1"
     style="stroke-width:7.79022" />
  <path
     d="M 44.442687,32.890833 30.809798,43.602388 44.442687,54.313932 58.075575,43.602388 Z"
     style="fill:#ffffff;fill-opacity:1;stroke-width:7.79022"
     id="path1-5" />
  <path
     d="M 64.982702,49.026838 51.349814,59.738394 64.982702,70.449938 78.61559,59.738394 Z"
     style="fill:#ffffff;fill-opacity:1;stroke-width:7.79022"
     id="path1-5-2" />
  <path
     d="M 84.879154,65.429272 71.246266,76.140827 84.879154,86.852372 98.512042,76.140827 Z"
     style="fill:#ffffff;fill-opacity:1;stroke-width:7.79022"
     id="path1-5-8" />
  <path
     d="M 44.206804,64.951816 30.573916,75.663371 44.206804,86.374916 57.839692,75.663371 Z"
     style="fill:#ffffff;fill-opacity:1;stroke-width:7.79022"
     id="path1-5-3" />
  <path
     d="M 85.997327,33.622288 72.364439,44.333844 85.997327,55.045388 99.630213,44.333844 Z"
     style="fill:#ffffff;fill-opacity:1;stroke-width:7.79022"
     id="path1-5-4" />
</svg>
